<?xml version="1.0" standalone="no"?>
<!DOCTYPE svg PUBLIC "-//W3C//DTD SVG 20010904//EN"
 "http://www.w3.org/TR/2001/REC-SVG-20010904/DTD/svg10.dtd">
<svg version="1.0" xmlns="http://www.w3.org/2000/svg"
 width="1200.000000pt" height="1198.000000pt" viewBox="0 0 1200.000000 1198.000000"
 preserveAspectRatio="xMidYMid meet">

<g transform="translate(0.000000,1198.000000) scale(0.100000,-0.100000)"
fill="#000000" stroke="none">
<path d="M5780 11140 c-1890 -77 -3590 -1194 -4421 -2905 -462 -954 -619
-2050 -443 -3100 183 -1084 690 -2051 1485 -2830 832 -815 1877 -1307 3064
-1442 200 -22 817 -26 1015 -5 513 53 967 162 1414 339 1525 603 2683 1910
3095 3493 127 489 179 976 160 1504 -59 1625 -895 3136 -2247 4057 -401 274
-862 499 -1325 648 -408 131 -888 219 -1287 236 -283 11 -330 12 -510 5z m330
-4160 c479 -59 841 -435 879 -912 24 -292 -71 -557 -273 -767 -123 -127 -265
-213 -441 -267 -84 -26 -103 -28 -270 -28 -160 -1 -189 2 -260 22 -176 52
-322 138 -446 261 -172 173 -269 382 -289 626 -46 572 392 1055 975 1074 22 0
79 -4 125 -9z m-1756 -1379 c20 -124 131 -384 229 -534 249 -382 643 -647
1098 -739 97 -19 144 -23 319 -23 173 0 222 4 315 22 454 93 831 343 1086 722
110 163 190 338 235 519 l18 72 1328 0 c730 0 1328 -2 1328 -5 0 -36 -47 -352
-70 -469 -239 -1219 -1015 -2297 -2100 -2921 -507 -291 -1022 -464 -1630 -547
-147 -20 -207 -23 -540 -23 -420 0 -536 11 -879 81 -1717 349 -3069 1721
-3395 3444 -28 148 -56 351 -56 406 l0 34 1354 0 1353 0 7 -39z"/>
</g>
</svg>
